PathFileType	4	(X/Y/Z)	C:/Users/beibeiliu/ov580/test_trc/User1\sequence.15_training_dense_left.trc
DataRate	CameraRate	NumFrames	NumMarkers	Units	OrigDataRate	OrigDataStartFrame	OrigNumFrames
120	120	16	19	mm	120	239	273
Frame#	Time	ThumbCMC			ThumbMCP			ThumbIP			ThumbTip			IndexMCP			IndexPIP			IndexTip			MiddleMCP			MiddlePIP			MiddleTip			RingMCP			RingPIP			RingTip			PinkyMCP			PinkyPIP			PinkyTip			BackHand1			BackHand2			BackHand3	
		X0	Y0	Z0	X1	Y1	Z1	X2	Y2	Z2	X3	Y3	Z3	X4	Y4	Z4	X5	Y5	Z5	X6	Y6	Z6	X7	Y7	Z7	X8	Y8	Z8	X9	Y9	Z9	X10	Y10	Z10	X11	Y11	Z11	X12	Y12	Z12	X13	Y13	Z13	X14	Y14	Z14	X15	Y15	Z15	X16	Y16	Z16	X17	Y17	Z17	X18	Y18	Z18	
238	1.98333	-164.334	93.2677	29.8387	-149.12	69.9291	4.03015	-143.363	60.7376	-26.3767	-154.544	53.8604	-51.6919	-155.679	129.145	-46.4056	-152.385	131.624	-75.5733	-150.836	130.943	-100.687	-174.466	100.996	-61.8341	-172.813	66.0164	-57.5279	-176.22	66.8676	-18.1379	-195.755	93.7917	-63.2221	-189.785	63.4708	-58.4802	-192.454	61.3921	-23.8341	-228.445	105.934	-57.2206	-226.721	103.66	-76.5651	-227.695	106.128	-99.085	-216.303	124.176	-5.97531	-229.891	124.508	21.3306	-190.165	125.443	21.0525	
239	1.99167	-164.363	92.8542	29.407	-151.483	70.202	-0.0783515	-147.117	60.6491	-28.6469	-160.382	51.5677	-56.4005	-160.249	128.04	-48.8182	-152.783	130.867	-73.7858	-154.43	131.036	-102.639	-175.351	99.9123	-62.179	-172.988	65.6939	-57.0792	-178.394	69.2548	-17.4117	-198.725	92.9236	-62.9277	-188.753	60.1446	-55.3925	-193.438	59.458	-24.8985	-226.295	104.358	-52.7147	-227.957	101.587	-78.778	-226.949	105.85	-96.9224	-218.72	122.588	-10.7873	-231.791	121.546	24.3019	-191.306	127.406	17.6773	
240	2	-164.081	91.4789	25.7955	-149.499	66.754	1.924	-146.175	57.255	-28.5341	-164.327	51.5017	-51.9986	-160.789	125.681	-49.8623	-156.465	128.375	-78.5805	-154.508	128.189	-99.7156	-176.344	94.1336	-64.3362	-170.9	64.4651	-58.2861	-176.593	69.333	-15.9439	-194.254	89.6822	-62.935	-187.354	58.3354	-55.8908	-192.239	58.4134	-20.8329	-229.859	100.211	-58.3017	-229.137	98.074	-76.8465	-226.582	103.343	-99.3554	-220.707	120.63	-9.71741	-228.308	117.272	22.1532	-190.549	126.17	17.0572	
241	2.00833	-167.521	89.2526	29.0886	-148.947	63.9197	0.790663	-145.803	55.1031	-31.2702	-163.144	47.0748	-50.2504	-157.95	122.995	-49.1975	-154.373	124.657	-74.2537	-155.234	123.177	-100.861	-172.869	94.4166	-62.2713	-166.013	60.439	-55.6657	-174.978	65.533	-17.0306	-194.633	85.7661	-63.835	-187.55	51.3303	-53.3984	-188.68	56.2361	-19.6789	-228.91	95.7928	-57.3319	-227.858	94.2843	-79.1458	-228.735	97.9835	-100.17	-219.84	117.76	-9.596	-230.754	113.758	22.0344	-191.967	122.302	12.4443	
242	2.01667	-162.694	85.3744	28.8291	-150.304	62.0564	-0.315768	-144.923	49.5533	-27.7661	-162.946	40.4569	-54.0521	-154.605	119.061	-51.7694	-153.763	119.933	-77.173	-154.281	118.6	-103.421	-172.253	87.3987	-62.8226	-163.579	55.0426	-52.4181	-174.372	60.8194	-16.8941	-196.646	80.3251	-63.9986	-182.633	49.5359	-52.7377	-189.527	51.17	-18.0832	-225.253	93.1934	-57.6349	-223.24	91.6971	-77.1718	-226.853	94.4142	-101.753	-213.699	114.111	-9.35145	-226.924	110.826	23.3577	-187.336	120.14	14.4167	
243	2.025	-161.906	80.884	30.1188	-145.903	54.6463	3.89978	-145.51	44.747	-25.2071	-160.35	34.7521	-48.9267	-154.976	112.191	-50.1929	-153.129	112.404	-74.749	-150.354	112.95	-101.934	-168.486	80.9909	-60.8676	-165.07	48.1741	-52.2087	-174.741	57.1495	-14.5341	-194.004	75.9266	-60.2037	-181.282	44.7298	-54.2598	-188.06	46.1694	-16.3963	-221.572	86.6146	-58.1746	-222.701	84.6016	-76.1315	-221.841	87.1666	-98.623	-210.079	108.907	-12.0378	-222.646	108.733	22.5708	-189.384	114.527	15.3793	
244	2.03333	-160.347	73.9805	30.5739	-142.123	47.545	8.40535	-141.758	37.7151	-19.4257	-158.524	28.0347	-47.9777	-150.14	103.031	-45.5671	-148.757	103.408	-70.6759	-143.266	103.319	-97.192	-164.982	74.138	-59.197	-164.408	41.4389	-50.5054	-171.822	50.2579	-12.5825	-187.408	68.0334	-58.9085	-178.986	35.3322	-47.3038	-187.392	38.9952	-14.6817	-218.853	79.8917	-53.85	-219.945	77.0962	-72.0381	-217.948	80.6294	-96.5946	-212.165	101.489	-8.38119	-221.249	103.703	21.6381	-181.638	106.663	20.7908	
245	2.04167	-157.592	70.4195	35.9397	-138.608	43.1487	5.98647	-137.933	31.7479	-17.372	-154.618	22.5699	-40.7882	-147.514	97.5183	-46.8968	-143.61	97.1742	-71.7419	-139.743	97.6501	-97.3489	-162.629	71.0399	-55.1486	-161.205	36.4926	-48.8632	-170.934	46.0662	-11.2332	-183.217	62.4056	-57.9772	-178.823	29.9151	-46.0001	-185.114	33.2423	-15.5067	-218.039	73.8488	-51.9008	-213.947	71.6265	-70.7702	-213.857	75.2275	-94.8789	-207.15	98.014	-10.0189	-218.68	98.7293	23.5724	-179.567	103.737	20.405	
246	2.05	-152.961	66.8486	35.3321	-137.977	40.9559	6.6956	-138.017	29.7748	-15.0206	-153.149	19.8095	-39.6267	-144.722	94.5717	-47.215	-140.021	95.278	-72.544	-141.035	92.0459	-98.288	-159.927	66.5884	-55.6026	-157.573	32.3474	-44.4749	-164.177	42.6473	-9.80783	-186.38	59.5324	-57.627	-173.609	27.4753	-44.6496	-183.336	32.7873	-12.4384	-212.121	71.2229	-54.1025	-210.777	68.1592	-74.2348	-210.309	70.4932	-91.6915	-201.884	96.501	-9.11363	-216.978	95.7232	26.3547	-176.794	100.983	17.1551	
247	2.05833	-154.366	67.2642	34.5851	-141.088	40.9053	10.3843	-136.801	30.504	-19.1253	-151.346	20.5774	-39.6975	-139.463	96.1334	-43.8174	-137.555	95.7168	-69.3845	-135.485	94.086	-95.1425	-158.159	66.2413	-55.0364	-154.679	33.7761	-46.571	-164.439	46.4476	-8.48982	-183.532	60.7163	-56.753	-177.765	26.9085	-45.3609	-182.465	33.7555	-11.6505	-212.849	72.2015	-52.0203	-208.693	69.26	-71.7969	-206.881	74.4363	-93.2148	-204.461	96.4044	-9.21575	-215.162	97.6142	24.843	-178.893	101.044	21.7268	
248	2.06667	-151.555	66.2934	35.5295	-139.248	41.3671	9.58308	-137.054	30.8427	-17.1895	-153.367	23.2509	-43.568	-142.577	96.2948	-41.5833	-136.882	97.8126	-68.6683	-138.536	97.0669	-95.5025	-161.39	69.694	-55.5255	-153.916	35.149	-45.9209	-162.809	44.5846	-10.5184	-182.173	64.5251	-56.0347	-174.114	31.4882	-47.3932	-178.55	33.5903	-14.982	-212.136	76.3178	-50.1415	-209.83	73.2755	-70.7686	-209.975	79.3165	-95.515	-200.505	97.8949	-6.8883	-212.778	100.044	27.5497	-176.798	99.3798	22.5098	
249	2.075	-151.255	67.1734	33.2298	-139.519	42.4534	6.25911	-138.155	33.5626	-24.4327	-153.786	24.8609	-46.8547	-141.875	100.238	-45.0111	-138.471	100.403	-66.7468	-136.78	101.1	-93.0612	-161.446	74.6523	-54.4596	-159.736	40.2973	-50.6406	-168.201	49.3736	-12.2771	-184.413	68.9035	-56.8829	-178.204	34.4913	-48.0628	-182.534	40.0956	-13.6726	-211.862	83.156	-51.0219	-213.067	80.6916	-69.1192	-211.763	87.2272	-92.1507	-204.649	102.978	-5.62614	-212.177	99.6829	29.0173	-173.855	102.603	25.5452	
250	2.08333	-155.702	67.8257	30.721	-140.723	41.7883	2.7126	-141.521	35.7228	-27.0886	-155.729	29.5137	-47.9184	-137.908	102.158	-42.5661	-139.923	103.722	-66.9939	-137.073	108.137	-97.0895	-162.401	75.4018	-59.2156	-159.887	43.3568	-51.3697	-169.068	49.8754	-15.1386	-183.859	74.0633	-56.9218	-184.526	39.6451	-52.0455	-184.892	40.234	-19.4521	-211.981	89.0686	-48.9055	-213.314	87.2399	-69.8559	-211.859	94.7992	-90.2397	-199.587	106.227	-2.43072	-210.982	102.233	30.2827	-175.02	102.229	24.3181	
251	2.09167	-153.046	63.394	33.3682	-142.989	39.7318	3.28313	-144.264	35.3605	-28.0618	-160.268	34.9319	-51.628	-138.084	102.636	-44.0476	-135.456	105.434	-68.3947	-133.779	108.662	-92.6415	-160.247	78.7595	-57.5939	-164.223	46.3916	-55.2421	-169.469	50.6542	-16.8303	-184.664	76.1029	-60.13	-183.053	43.3238	-54.754	-188.117	42.6243	-20.2336	-210.676	93.2793	-47.5767	-211.917	94.0318	-68.4854	-209.321	103.29	-92.5407	-195.818	108.947	-2.94713	-209.065	105.31	32.0434	-173.828	104.349	23.4503	
252	2.1	-155.748	61.3188	32.5209	-142.079	38.1427	-1.59004	-144.699	32.9199	-28.1935	-161.452	31.5886	-53.7426	-135.308	99.7678	-39.6474	-134.798	104.728	-69.7809	-132.895	109.727	-94.826	-162.004	78.6051	-59.1002	-165.021	46.1833	-56.1972	-169.655	50.8782	-14.1712	-184.674	79.1509	-58.3017	-186.174	47.2127	-57.0231	-192.201	41.8132	-23.5962	-213.232	97.391	-50.5278	-208.678	96.6107	-71.0532	-206.986	105.335	-91.4114	-193.925	108.137	0.346653	-204.984	106.542	33.4209	-168.326	101.952	25.6047	
253	2.10833	-152.201	53.8934	35.6011	-146.13	33.566	1.97533	-145.573	27.356	-28.264	-162.405	26.2852	-54.2778	-136.489	94.9788	-43.1986	-130.826	96.6753	-65.0729	-128.288	101.582	-90.9012	-161.203	73.385	-57.6285	-167.046	41.9707	-56.2034	-172.628	45.3762	-15.7463	-186.23	75.117	-58.7238	-191.68	44.1604	-54.5293	-193.236	41.485	-18.867	-210.262	97.0257	-48.4591	-209.038	95.425	-69.2563	-209.488	104.856	-86.7903	-190.256	108.839	-1.30182	-201.285	107.039	32.0172	-162.322	95.3889	25.3429	
